# xmcd
#
# Track frame offsets: 
#        150
#        17970
#        32655
#        46562
#        69762
#        83127
#        101157
#        123047
#        148937
#        162990
#        184030
#        202202
#
# Disc length: 2933 seconds
#
# Revision: 3
# Processed by: cddbd v1.5.2PL0 Copyright (c) Steve Scherf et al.
# Submitted via: ExactAudioCopy v0.99pb5
#
DISCID=9e0b730c
DTITLE=Drafi Deutscher - So viele Fragen
DYEAR=1996
DGENRE=Schlager
TTITLE0=Wenn man liebt
TTITLE1=Amen
TTITLE2=Solange wir noch leben
TTITLE3=Geträumte Liebe
TTITLE4=Rock´n Roll Kids
TTITLE5=Es war dumm von mir
TTITLE6=Damals im Mai
TTITLE7=Mit verbundenen Augen
TTITLE8=Tiefes Wasser
TTITLE9=Für die Liebe meines Lebens
TTITLE10=Marmor Stein und Eisen bricht
TTITLE11=Wann geh'n wir nach San Francisco
EXTD=YEAR: 1996
EXTT0=
EXTT1=
EXTT2=
EXTT3=
EXTT4=
EXTT5=
EXTT6=
EXTT7=
EXTT8=
EXTT9=
EXTT10=
EXTT11=
PLAYORDER=
